<?xml version="1.0" encoding="utf-8"?>
<!-- Generator: Adobe Illustrator 20.1.0, SVG Export Plug-In . SVG Version: 6.00 Build 0)  -->
<svg version="1.1" id="Layer_1" xmlns="http://www.w3.org/2000/svg" xmlns:xlink="http://www.w3.org/1999/xlink" x="0px" y="0px"
	 viewBox="0 0 22 22" style="enable-background:new 0 0 22 22;" xml:space="preserve">
<style type="text/css">
	.st0{display:none;}
	.st1{display:inline;}
	.st2{fill:#666A6C;stroke:#666A6C;stroke-width:0.4;}
	.st3{fill:#666A6C;stroke:#666A6C;stroke-width:0.5;}
</style>
<g id="Layer_1_1_" xmlns:sketch="http://www.bohemiancoding.com/sketch/ns" class="st0">
	<title>Artboard 11</title>
	<desc>Created with Sketch.</desc>
	<g id="Page-1" sketch:type="MSPage" class="st1">
		<g id="Artboard-11" sketch:type="MSArtboardGroup">
			<path id="swim-icon-copy" sketch:type="MSShapeGroup" class="st2" d="M-1.5,12.2c1.6,0,1.6,0.8,3.1,0.8s1.6-0.8,3.1-0.8
				c1.2,0,1.5,0.5,2.3,0.7v-2.3V9.8V7.5V6.7V5.1C7,3.4,8.4,2,10.1,2s3.1,1.4,3.1,3.1c0,0.2-0.2,0.4-0.4,0.4s-0.4-0.2-0.4-0.4
				c0-1.3-1-2.3-2.3-2.3S7.8,3.9,7.8,5.1v1.6h7.8V5.1C15.6,3.4,17,2,18.7,2s3.1,1.4,3.1,3.1c0,0.2-0.2,0.4-0.4,0.4S21,5.3,21,5.1
				c0-1.3-1-2.3-2.3-2.3s-2.3,1.1-2.3,2.3v7.1c0.2-0.1,0.5-0.1,0.8-0.1c1.6,0,1.6,0.8,3.1,0.8s1.6-0.8,3.1-0.8V13
				c-1.6,0-1.6,0.8-3.1,0.8S18.8,13,17.2,13s-1.6,0.8-3.1,0.8S12.6,13,11,13s-1.6,0.8-3.1,0.8S6.3,13,4.8,13s-1.6,0.8-3.1,0.8
				S0.1,13-1.5,13V12.2L-1.5,12.2z M-1.5,15.3c1.6,0,1.6,0.8,3.1,0.8s1.6-0.8,3.1-0.8s1.6,0.8,3.1,0.8s1.6-0.8,3.1-0.8
				s1.6,0.8,3.1,0.8s1.6-0.8,3.1-0.8s1.6,0.8,3.1,0.8s1.6-0.8,3.1-0.8v0.8c-1.6,0-1.6,0.8-3.1,0.8s-1.6-0.8-3.1-0.8
				s-1.6,0.8-3.1,0.8s-1.6-0.8-3.1-0.8s-1.6,0.8-3.1,0.8s-1.6-0.8-3.1-0.8s-1.6,0.8-3.1,0.8S0,16.1-1.5,16.1L-1.5,15.3L-1.5,15.3z
				 M7.9,13c1.6,0,1.6-0.8,3.1-0.8s1.6,0.8,3.1,0.8c0.8,0,1.2-0.2,1.6-0.4v-2H7.9V13L7.9,13z M7.9,9.8h7.8V7.5H7.9V9.8L7.9,9.8z
				 M-1.5,18.4c1.6,0,1.6,0.8,3.1,0.8s1.6-0.8,3.1-0.8s1.6,0.8,3.1,0.8s1.6-0.8,3.1-0.8s1.6,0.8,3.1,0.8s1.6-0.8,3.1-0.8
				s1.6,0.8,3.1,0.8s1.6-0.8,3.1-0.8v0.8c-1.6,0-1.6,0.8-3.1,0.8s-1.6-0.8-3.1-0.8s-1.4,0.8-3,0.8s-1.6-0.8-3.1-0.8S9.4,20,7.9,20
				s-1.6-0.8-3.1-0.8S3.2,20,1.6,20S0,19.2-1.5,19.2V18.4L-1.5,18.4z"/>
		</g>
	</g>
</g>
<g id="Layer_2">
	<path class="st3" d="M18.8,10.2c0-0.2-0.1-0.6-0.2-0.9c-0.3-1.4-1-2.8-2.1-3.8c-1.1-1.1-2.4-1.8-3.8-2.1c-0.3-0.1-0.6-0.1-0.9-0.2
		C9.5,2.9,7.2,3.7,5.5,5.5s-2.5,4.1-2.3,6.4c0,0.3,0.1,0.6,0.2,0.9c0.3,1.4,1,2.8,2.1,3.8c1.1,1.1,2.4,1.8,3.8,2.1
		c0.3,0.1,0.6,0.1,0.9,0.2c2.3,0.2,4.6-0.5,6.4-2.3C18.2,14.7,19.1,12.5,18.8,10.2z M6,6c1.6-1.6,3.8-2.3,5.9-2
		c0.3,2.1-0.4,4.3-2,5.9s-3.8,2.3-5.9,2C3.8,9.9,4.4,7.7,6,6z M6,16c-0.9-0.9-1.5-2-1.8-3.2c2.3,0.2,4.6-0.5,6.4-2.3
		s2.5-4.1,2.3-6.4C14,4.5,15.1,5.1,16,6s1.5,2,1.8,3.2c-2.3-0.2-4.6,0.5-6.4,2.3s-2.5,4.1-2.3,6.4C8,17.5,6.9,16.9,6,16z M10,17.9
		c-0.3-2.1,0.3-4.3,2-5.9s3.8-2.3,5.9-2c0.3,2.1-0.4,4.3-2,5.9C14.4,17.6,12.1,18.2,10,17.9z"/>
</g>
</svg>
