<?xml version="1.0" encoding="utf-8"?>
<!-- Generator: Adobe Illustrator 20.1.0, SVG Export Plug-In . SVG Version: 6.00 Build 0)  -->
<svg version="1.1" id="Layer_1" xmlns:sketch="http://www.bohemiancoding.com/sketch/ns"
	 xmlns="http://www.w3.org/2000/svg" xmlns:xlink="http://www.w3.org/1999/xlink" x="0px" y="0px" viewBox="0 0 22 22"
	 style="enable-background:new 0 0 22 22;" xml:space="preserve">
<style type="text/css">
	.st0{fill:#666A6C;}
</style>
<title>Artboard 10</title>
<desc>Created with Sketch.</desc>
<g id="Page-1" sketch:type="MSPage">
	<g id="Artboard-10" sketch:type="MSArtboardGroup">
		<path id="Shape-Copy" sketch:type="MSShapeGroup" class="st0" d="M19.8,4.4c-0.4-0.4-1-0.7-1.6-0.7c0-0.6-0.3-1.1-0.7-1.6
			s-1-0.7-1.6-0.7c-0.6,0-1.2,0.2-1.6,0.7c-0.8,0.8-0.9,2.1-0.2,3L5.2,14c-0.4-0.3-0.9-0.4-1.4-0.4c-0.6,0-1.2,0.2-1.6,0.7
			c-0.4,0.5-0.7,1-0.7,1.7c0,0.6,0.2,1.2,0.7,1.6c0.4,0.4,1,0.7,1.6,0.7c0,0.6,0.3,1.1,0.7,1.6c0.4,0.4,1,0.7,1.6,0.7
			c0.6,0,1.2-0.2,1.6-0.7c0.4-0.4,0.7-1,0.7-1.6c0-0.5-0.2-1-0.4-1.4L16.8,8c0.4,0.3,0.9,0.4,1.4,0.4c0.6,0,1.2-0.2,1.6-0.7
			C20.7,6.8,20.7,5.3,19.8,4.4L19.8,4.4z M19,6.9c-0.2,0.2-0.5,0.3-0.8,0.3s-0.6-0.1-0.8-0.3c0,0-0.1-0.1-0.1-0.1
			c-0.1-0.1-0.3-0.2-0.4-0.2c-0.2,0-0.3,0-0.4,0.2l-9.7,9.7c-0.1,0.1-0.2,0.3-0.2,0.4c0,0.2,0.1,0.3,0.2,0.4c0,0,0.1,0,0.1,0.1
			c0.2,0.2,0.3,0.5,0.3,0.8S7.1,18.8,6.9,19c-0.2,0.2-0.5,0.3-0.8,0.3S5.5,19.2,5.3,19c-0.3-0.3-0.4-0.8-0.3-1.2
			c0.1-0.2,0-0.5-0.1-0.6C4.7,17,4.6,17,4.4,17c-0.1,0-0.1,0-0.2,0c-0.4,0.2-0.9,0.1-1.2-0.3c-0.2-0.2-0.3-0.5-0.3-0.8
			s0.1-0.6,0.3-0.8c0.2-0.2,0.5-0.3,0.8-0.3s0.6,0.1,0.8,0.4c0,0,0.1,0.1,0.1,0.1c0.1,0.1,0.3,0.2,0.4,0.2c0.2,0,0.3,0,0.4-0.2
			l9.7-9.7c0.1-0.1,0.2-0.3,0.2-0.4c0-0.2-0.1-0.3-0.2-0.4c0,0-0.1,0-0.1-0.1c-0.4-0.4-0.4-1.2,0-1.6c0.2-0.2,0.5-0.3,0.8-0.3
			s0.6,0.1,0.8,0.3c0.3,0.3,0.4,0.8,0.3,1.2c-0.1,0.2,0,0.5,0.1,0.6C17.3,5,17.6,5.1,17.8,5C18.2,4.9,18.7,5,19,5.3
			C19.4,5.7,19.4,6.4,19,6.9L19,6.9z"/>
	</g>
</g>
</svg>
