<?xml version="1.0" encoding="utf-8"?>
<!-- Generator: Adobe Illustrator 20.1.0, SVG Export Plug-In . SVG Version: 6.00 Build 0)  -->
<svg version="1.1" xmlns="http://www.w3.org/2000/svg" xmlns:xlink="http://www.w3.org/1999/xlink" x="0px" y="0px"
	 viewBox="0 0 26 20" style="enable-background:new 0 0 26 20;" xml:space="preserve">
<style type="text/css">
	.st0{display:none;}
	.st1{display:inline;}
	.st2{fill:#666A6C;stroke:#666A6C;stroke-width:0.4;}
	.st3{fill:#666A6C;}
</style>
<g id="Layer_1" xmlns:sketch="http://www.bohemiancoding.com/sketch/ns" class="st0">
	<title>Artboard 11</title>
	<desc>Created with Sketch.</desc>
	<g id="Page-1" sketch:type="MSPage" class="st1">
		<g id="Artboard-11" sketch:type="MSArtboardGroup">
			<path id="swim-icon-copy" sketch:type="MSShapeGroup" class="st2" d="M0.5,11.2c1.6,0,1.6,0.8,3.1,0.8s1.6-0.8,3.1-0.8
				c1.2,0,1.5,0.5,2.3,0.7V9.6V8.8V6.5V5.7V4.1c0-1.7,1.4-3.1,3.1-3.1c1.7,0,3.1,1.4,3.1,3.1c0,0.2-0.2,0.4-0.4,0.4
				s-0.4-0.2-0.4-0.4c0-1.3-1-2.3-2.3-2.3c-1.3,0-2.3,1.1-2.3,2.3v1.6h7.8V4.1c0-1.7,1.4-3.1,3.1-3.1c1.7,0,3.1,1.4,3.1,3.1
				c0,0.2-0.2,0.4-0.4,0.4s-0.4-0.2-0.4-0.4c0-1.3-1-2.3-2.3-2.3c-1.3,0-2.3,1.1-2.3,2.3v7.1c0.2-0.1,0.5-0.1,0.8-0.1
				c1.6,0,1.6,0.8,3.1,0.8s1.6-0.8,3.1-0.8V12c-1.6,0-1.6,0.8-3.1,0.8S20.8,12,19.2,12s-1.6,0.8-3.1,0.8S14.6,12,13,12
				s-1.6,0.8-3.1,0.8S8.3,12,6.8,12s-1.6,0.8-3.1,0.8S2.1,12,0.5,12V11.2L0.5,11.2z M0.5,14.3c1.6,0,1.6,0.8,3.1,0.8
				s1.6-0.8,3.1-0.8s1.6,0.8,3.1,0.8s1.6-0.8,3.1-0.8s1.6,0.8,3.1,0.8s1.6-0.8,3.1-0.8s1.6,0.8,3.1,0.8s1.6-0.8,3.1-0.8v0.8
				c-1.6,0-1.6,0.8-3.1,0.8s-1.6-0.8-3.1-0.8s-1.6,0.8-3.1,0.8s-1.6-0.8-3.1-0.8s-1.6,0.8-3.1,0.8s-1.6-0.8-3.1-0.8
				s-1.6,0.8-3.1,0.8s-1.6-0.8-3.1-0.8V14.3L0.5,14.3z M9.9,12c1.6,0,1.6-0.8,3.1-0.8s1.6,0.8,3.1,0.8c0.8,0,1.2-0.2,1.6-0.4v-2H9.9
				V12L9.9,12z M9.9,8.8h7.8V6.5H9.9V8.8L9.9,8.8z M0.5,17.4c1.6,0,1.6,0.8,3.1,0.8s1.6-0.8,3.1-0.8s1.6,0.8,3.1,0.8
				s1.6-0.8,3.1-0.8s1.6,0.8,3.1,0.8s1.6-0.8,3.1-0.8s1.6,0.8,3.1,0.8s1.6-0.8,3.1-0.8v0.8c-1.6,0-1.6,0.8-3.1,0.8s-1.6-0.8-3.1-0.8
				S17.7,19,16.1,19s-1.6-0.8-3.1-0.8S11.4,19,9.9,19s-1.6-0.8-3.1-0.8S5.2,19,3.6,19s-1.6-0.8-3.1-0.8V17.4L0.5,17.4z"/>
		</g>
	</g>
</g>
<g id="Layer_2">
	<path class="st3" d="M18.1,1.8c-0.3-0.2-0.7-0.4-1-0.5c-1.2-0.6-2.6-0.9-4.1-0.9c-2.2,0-4.2,0.7-5.8,2C6.8,2.6,6.5,2.8,6.3,3.1
		C4.5,4.9,3.4,7.3,3.4,10c0,3.8,2.2,7,5.3,8.6c0.3,0.2,0.7,0.3,1.1,0.5c1,0.4,2.1,0.6,3.3,0.6c2.1,0,4-0.7,5.6-1.8
		c0.3-0.2,0.6-0.4,0.9-0.7c2-1.8,3.2-4.3,3.2-7.1C22.6,6.5,20.8,3.5,18.1,1.8z M13,1.4c1.1,0,2.2,0.2,3.2,0.6
		c-1.8,1.6-3,3.9-3.1,6.5C12.2,6,10.5,4,8.2,2.8C9.6,1.9,11.2,1.4,13,1.4z M9.5,17.9c-3-1.3-5.2-4.4-5.2-7.9c0-2.6,1.1-4.9,3-6.5
		c3,1.3,5.2,4.4,5.2,7.9C12.5,14,11.4,16.3,9.5,17.9z M13,18.6c-0.8,0-1.6-0.1-2.4-0.3c1.6-1.6,2.7-3.8,2.9-6.2
		c0.7,2.2,2.2,4,4.1,5.2C16.2,18.2,14.7,18.6,13,18.6z M18.5,16.7c-2.7-1.5-4.4-4.3-4.4-7.5c0-2.7,1.2-5.1,3.2-6.7
		c2.7,1.5,4.5,4.3,4.5,7.5C21.6,12.7,20.4,15.1,18.5,16.7z"/>
</g>
</svg>
