<?xml version="1.0" encoding="utf-8"?>
<!-- Generator: Adobe Illustrator 20.1.0, SVG Export Plug-In . SVG Version: 6.00 Build 0)  -->
<svg version="1.1" id="Layer_1" xmlns="http://www.w3.org/2000/svg" xmlns:xlink="http://www.w3.org/1999/xlink" x="0px" y="0px"
	 viewBox="0 0 22 22" style="enable-background:new 0 0 22 22;" xml:space="preserve">
<style type="text/css">
	.st0{display:none;}
	.st1{display:inline;}
	.st2{fill:#666A6C;stroke:#666A6C;stroke-width:0.4;}
	.st3{display:inline;fill:#666A6C;stroke:#666A6C;stroke-width:0.5;}
	.st4{fill:#666A6C;}
	.st5{fill:#666A6C;stroke:#666A6C;stroke-width:0.75;stroke-miterlimit:10;}
</style>
<g id="Layer_1_1_" xmlns:sketch="http://www.bohemiancoding.com/sketch/ns" class="st0">
	<title>Artboard 11</title>
	<desc>Created with Sketch.</desc>
	<g id="Page-1" sketch:type="MSPage" class="st1">
		<g id="Artboard-11" sketch:type="MSArtboardGroup">
			<path id="swim-icon-copy" sketch:type="MSShapeGroup" class="st2" d="M-1.5,12.2c1.6,0,1.6,0.8,3.1,0.8s1.6-0.8,3.1-0.8
				c1.2,0,1.5,0.5,2.3,0.7v-2.3V9.8V7.5V6.7V5.1C7,3.4,8.4,2,10.1,2s3.1,1.4,3.1,3.1c0,0.2-0.2,0.4-0.4,0.4s-0.4-0.2-0.4-0.4
				c0-1.3-1-2.3-2.3-2.3S7.8,3.9,7.8,5.1v1.6h7.8V5.1C15.6,3.4,17,2,18.7,2s3.1,1.4,3.1,3.1c0,0.2-0.2,0.4-0.4,0.4S21,5.3,21,5.1
				c0-1.3-1-2.3-2.3-2.3s-2.3,1.1-2.3,2.3v7.1c0.2-0.1,0.5-0.1,0.8-0.1c1.6,0,1.6,0.8,3.1,0.8s1.6-0.8,3.1-0.8V13
				c-1.6,0-1.6,0.8-3.1,0.8S18.8,13,17.2,13s-1.6,0.8-3.1,0.8S12.6,13,11,13s-1.6,0.8-3.1,0.8S6.3,13,4.8,13s-1.6,0.8-3.1,0.8
				S0.1,13-1.5,13V12.2L-1.5,12.2z M-1.5,15.3c1.6,0,1.6,0.8,3.1,0.8s1.6-0.8,3.1-0.8s1.6,0.8,3.1,0.8s1.6-0.8,3.1-0.8
				s1.6,0.8,3.1,0.8s1.6-0.8,3.1-0.8s1.6,0.8,3.1,0.8s1.6-0.8,3.1-0.8v0.8c-1.6,0-1.6,0.8-3.1,0.8s-1.6-0.8-3.1-0.8
				s-1.6,0.8-3.1,0.8s-1.6-0.8-3.1-0.8s-1.6,0.8-3.1,0.8s-1.6-0.8-3.1-0.8s-1.6,0.8-3.1,0.8S0,16.1-1.5,16.1L-1.5,15.3L-1.5,15.3z
				 M7.9,13c1.6,0,1.6-0.8,3.1-0.8s1.6,0.8,3.1,0.8c0.8,0,1.2-0.2,1.6-0.4v-2H7.9V13L7.9,13z M7.9,9.8h7.8V7.5H7.9V9.8L7.9,9.8z
				 M-1.5,18.4c1.6,0,1.6,0.8,3.1,0.8s1.6-0.8,3.1-0.8s1.6,0.8,3.1,0.8s1.6-0.8,3.1-0.8s1.6,0.8,3.1,0.8s1.6-0.8,3.1-0.8
				s1.6,0.8,3.1,0.8s1.6-0.8,3.1-0.8v0.8c-1.6,0-1.6,0.8-3.1,0.8s-1.6-0.8-3.1-0.8s-1.4,0.8-3,0.8s-1.6-0.8-3.1-0.8S9.4,20,7.9,20
				s-1.6-0.8-3.1-0.8S3.2,20,1.6,20S0,19.2-1.5,19.2V18.4L-1.5,18.4z"/>
		</g>
	</g>
</g>
<g id="Layer_2" class="st0">
	<path class="st3" d="M20.6,10c0-0.3-0.1-0.7-0.2-1.1c-0.4-1.7-1.2-3.4-2.6-4.7c-1.4-1.4-3-2.2-4.7-2.6c-0.4-0.1-0.7-0.1-1.1-0.2
		C9.2,1.1,6.3,2,4.2,4.2s-3.1,5-2.8,7.8c0,0.4,0.1,0.7,0.2,1.1c0.4,1.7,1.2,3.4,2.6,4.7c1.4,1.4,3,2.2,4.7,2.6
		c0.4,0.1,0.7,0.1,1.1,0.2c2.8,0.3,5.7-0.6,7.8-2.8S20.9,12.8,20.6,10z M4.9,4.9c2-2,4.7-2.8,7.3-2.4c0.4,2.6-0.5,5.3-2.4,7.3
		s-4.7,2.8-7.3,2.4C2.1,9.6,2.9,6.9,4.9,4.9z M4.9,17.1C3.8,16,3,14.7,2.7,13.2c2.8,0.3,5.7-0.6,7.8-2.8s3.1-5,2.8-7.8
		C14.7,3,16,3.8,17.1,4.9s1.9,2.4,2.2,3.9c-2.8-0.3-5.7,0.6-7.8,2.8s-3.1,5-2.8,7.8C7.3,19,6,18.2,4.9,17.1z M9.8,19.5
		c-0.4-2.6,0.4-5.3,2.4-7.3s4.7-2.8,7.3-2.4c0.4,2.6-0.5,5.3-2.4,7.3S12.4,19.9,9.8,19.5z"/>
</g>
<g id="Layer_3" class="st0">
	<g class="st1">
		<path class="st4" d="M18.1,15.1c-0.8-0.7-1.5-1.2-2.4-1.7c-0.8-0.5-1.7-0.9-2.6-1.1c-0.9-0.2-1.9-0.2-2.6,0.3
			c-0.3,0.2-0.6,0.6-0.8,1c-0.1,0.2-0.2,0.4-0.2,0.6c-0.1,0.2-0.1,0.5-0.1,0.7H8.9c0-0.5-0.1-0.9-0.3-1.3c-0.2-0.4-0.4-0.7-0.8-0.9
			c-0.7-0.4-1.6-0.4-2.5-0.2s-1.8,0.6-2.6,1s-1.6,1-2.3,1.6l-0.2,0.2L-0.1,15L0,14.7c1.3-1.5,3.1-2.6,5.1-3.1c1-0.2,2.1-0.3,3.1,0.4
			c0.5,0.3,0.8,0.8,1,1.3s0.2,1,0.2,1.6c0,0.1-0.1,0.2-0.3,0.2c-0.1,0-0.2-0.1-0.2-0.2c0-0.5,0-1.1,0.1-1.6c0.2-0.5,0.5-1.1,1-1.4
			c0.5-0.3,1.1-0.5,1.6-0.6c0.6-0.1,1.1,0,1.6,0.1c1,0.2,2,0.7,2.9,1.3s1.6,1.3,2.3,2l0.2,0.2l-0.3,0.3L18.1,15.1z"/>
	</g>
</g>
<g id="Layer_3_copy">
	<path class="st5" d="M17.9,15.1l-0.2,0.3l-0.2-0.2c-0.8-0.4-1.6-0.9-2.3-1.2c-0.9-0.3-1.6-0.6-2.6-0.7c-0.8-0.1-1.7,0-2.2,0.6
		c-0.2,0.2-0.5,0.5-0.6,1c-0.1,0.2-0.1,0.4-0.1,0.6s0,0.5,0,0.6c0,0.1-0.1,0.2-0.2,0.2c-0.1,0-0.2-0.1-0.2-0.2
		c-0.1-0.4-0.2-0.8-0.4-1.1S8.3,14.6,8,14.4c-0.7-0.4-1.6-0.2-2.4,0c-0.8,0.3-1.5,0.7-2.1,1.2c-0.8,0.6-1.4,1.1-2,1.8l-0.2,0.1
		L1,17.3l0.2-0.2c1-1.5,2.5-2.7,4.2-3.4c0.8-0.3,1.9-0.4,2.8,0C8.6,14,9,14.3,9.2,14.6c0.1-0.5,0.3-0.9,0.7-1.2
		c0.4-0.3,0.9-0.6,1.4-0.7c0.5-0.2,1-0.1,1.4-0.1c1,0.1,1.9,0.4,2.8,0.8c0.9,0.4,1.7,1,2.3,1.5L17.9,15.1z"/>
</g>
<g id="Layer_3_copy_1_">
	<path class="st5" d="M21.4,12L21,12.2l-0.2-0.3c-0.7-0.9-1.4-1.8-2.2-2.4c-0.8-0.8-1.6-1.5-2.6-2c-0.9-0.5-2-0.8-2.8-0.4
		C12.8,7.2,12.4,7.5,12,8c-0.2,0.2-0.3,0.4-0.4,0.6c-0.1,0.2-0.3,0.5-0.3,0.7c0,0.1-0.2,0.2-0.4,0.1c-0.1,0-0.2-0.2-0.2-0.3
		c0.1-0.5,0.2-1,0.1-1.5s-0.3-0.9-0.6-1.2C9.6,5.7,8.5,5.5,7.5,5.4c-1,0-2,0.2-3,0.4C3.3,6,2.3,6.3,1.3,6.9L1.1,6.9L0.9,6.5l0.3-0.2
		C3,5.1,5.3,4.4,7.6,4.5c1,0,2.4,0.4,3.3,1.3c0.3,0.4,0.6,1,0.7,1.5c0.4-0.5,0.8-0.8,1.3-1C13.5,6,14.2,6,14.8,6
		c0.7,0.1,1.2,0.3,1.7,0.6c1.1,0.5,2,1.3,2.8,2.3c0.8,0.9,1.5,1.9,1.9,2.9L21.4,12z"/>
</g>
</svg>
